<?xml version="1.0" standalone="no"?>
<!DOCTYPE svg PUBLIC "-//W3C//DTD SVG 20010904//EN"
 "http://www.w3.org/TR/2001/REC-SVG-20010904/DTD/svg10.dtd">
<svg version="1.0" xmlns="http://www.w3.org/2000/svg"
 width="700.000000pt" height="700.000000pt" viewBox="0 0 700.000000 700.000000"
 preserveAspectRatio="xMidYMid meet">
<metadata>
Created by potrace 1.14, written by Peter Selinger 2001-2017
</metadata>
<g transform="translate(0.000000,700.000000) scale(0.100000,-0.100000)"
fill="#000000" stroke="none">
<path d="M20 5992 c0 -2 50 -88 111 -191 103 -171 220 -343 284 -416 328 -372
756 -601 1415 -756 140 -33 289 -63 370 -74 14 -2 54 -8 90 -14 36 -6 85 -13
110 -16 25 -3 56 -8 70 -10 14 -2 54 -6 90 -10 36 -3 76 -8 90 -10 14 -2 61
-7 105 -10 44 -4 96 -8 115 -10 19 -2 87 -6 150 -10 63 -3 140 -9 170 -11 30
-3 370 -7 755 -9 759 -4 1011 -10 1240 -30 629 -56 919 -177 930 -386 9 -160
-110 -344 -456 -704 -272 -283 -362 -378 -431 -455 -146 -165 -286 -346 -337
-436 -9 -16 -20 -32 -26 -36 -5 -4 -6 -8 -2 -8 5 0 95 75 200 168 168 147 243
211 361 312 16 14 34 30 40 35 12 11 197 168 235 200 13 11 29 25 35 30 6 6
38 33 71 60 33 28 62 52 65 55 3 3 39 35 80 70 41 35 77 66 80 69 3 3 32 28
65 56 33 27 65 54 71 60 6 5 41 37 79 70 522 458 742 725 751 913 3 71 -21
136 -68 179 -93 86 -339 171 -576 198 -26 3 -54 8 -62 10 -8 2 -46 7 -85 10
-38 3 -81 8 -95 10 -24 5 -146 13 -280 20 -217 12 -473 16 -1100 20 -1176 7
-1708 23 -2250 70 -25 2 -76 7 -115 10 -106 9 -213 21 -265 30 -14 2 -50 7
-80 10 -30 3 -66 8 -80 10 -14 3 -40 7 -57 10 -35 5 -82 13 -123 20 -22 4 -73
14 -159 31 -12 3 -53 12 -90 20 -36 9 -74 17 -84 19 -10 2 -32 9 -50 14 -18 6
-79 25 -137 42 -416 127 -774 342 -1104 663 -64 62 -116 110 -116 108z"/>
<path d="M1729 1965 c-212 -58 -366 -251 -373 -468 -2 -56 1 -81 18 -157 13
-55 70 -153 119 -203 91 -93 204 -146 326 -152 101 -5 171 9 258 52 306 149
369 562 124 801 -52 50 -108 85 -184 114 -64 25 -219 32 -288 13z"/>
<path d="M4013 1966 c-116 -28 -238 -115 -302 -214 -66 -103 -95 -251 -71
-367 50 -246 282 -421 529 -400 291 25 495 279 453 565 -42 292 -325 485 -609
416z"/>
</g>
</svg>
